inDegrees=no
num_controls=7
num_derivatives=13
num_iterations=144
num_multipliers=7
num_parameters=0
num_slacks=7
num_states=26
objective=0.448411
objective_accelerations=0.048781
objective_balance=0.007394
objective_effort=0.036334
objective_height=0.350961
objective_ligament=0.004941
solver_duration=2065.304911
status=Solve_Succeeded
success=true
DataType=double
version=3
OpenSimVersion=4.5
endheader
time	/jointset/ground_pelvis/pelvis_tilt/value	/jointset/ground_pelvis/pelvis_tx/value	/jointset/ground_pelvis/pelvis_ty/value	/jointset/hip_l/hip_flexion_l/value	/jointset/hip_l/hip_adduction_l/value	/jointset/hip_l/hip_rotation_l/value	/jointset/back/lumbar_extension/value	/jointset/patellofemoral_l/patellar_flexion_l/value	/jointset/knee_l/knee_flexion_l/value	/jointset/knee_l/knee_adduction_l/value	/jointset/knee_l/knee_rotation_l/value	/jointset/ankle_l/ankle_angle_l/value	/jointset/subtalar_l/subtalar_angle_l/value	/jointset/ground_pelvis/pelvis_tilt/speed	/jointset/ground_pelvis/pelvis_tx/speed	/jointset/ground_pelvis/pelvis_ty/speed	/jointset/hip_l/hip_flexion_l/speed	/jointset/hip_l/hip_adduction_l/speed	/jointset/hip_l/hip_rotation_l/speed	/jointset/back/lumbar_extension/speed	/jointset/patellofemoral_l/patellar_flexion_l/speed	/jointset/knee_l/knee_flexion_l/speed	/jointset/knee_l/knee_adduction_l/speed	/jointset/knee_l/knee_rotation_l/speed	/jointset/ankle_l/ankle_angle_l/speed	/jointset/subtalar_l/subtalar_angle_l/speed	/forceset/tau_hip_flexion_l	/forceset/tau_hip_adduction_l	/forceset/tau_hip_rotation_l	/forceset/tau_knee_flexion_l	/forceset/tau_ankle_angle_l	/forceset/tau_subtalar_angle_l	/forceset/tau_lumbar_extension	lambda_cid13_p0	lambda_cid13_p1	lambda_cid13_p2	lambda_cid13_p3	lambda_cid13_p4	lambda_cid13_p5	lambda_cid14_p0	/jointset/ground_pelvis/pelvis_tilt/accel	/jointset/ground_pelvis/pelvis_tx/accel	/jointset/ground_pelvis/pelvis_ty/accel	/jointset/hip_l/hip_flexion_l/accel	/jointset/hip_l/hip_adduction_l/accel	/jointset/hip_l/hip_rotation_l/accel	/jointset/back/lumbar_extension/accel	/jointset/patellofemoral_l/patellar_flexion_l/accel	/jointset/knee_l/knee_flexion_l/accel	/jointset/knee_l/knee_adduction_l/accel	/jointset/knee_l/knee_rotation_l/accel	/jointset/ankle_l/ankle_angle_l/accel	/jointset/subtalar_l/subtalar_angle_l/accel	gamma_cid13_p0	gamma_cid13_p1	gamma_cid13_p2	gamma_cid13_p3	gamma_cid13_p4	gamma_cid13_p5	gamma_cid14_p0
1	-0.6552168260103237	-0.1276564861467385	0.5985815430480655	1.94609678036667	-0.2958301107888675	0.135389571332928	-0.4363292322867084	1.195586314861485	1.195586314861297	-0.1745201523022743	0.1745288994719757	0.1001136785059705	-0.02750343772430927	-0.01236988793319808	0.0005409476679873759	-0.004352024347676336	0.02109813032613357	0.0009162421174798367	0.004236264197066279	3.22416177806767e-05	0.01127192773780733	0.01127192773780711	7.911089373910614e-06	4.770322787020269e-05	0.003320147373095071	0.001560996855785147	-0.4427106837812236	0.002802288044328422	-0.01809046506180495	-0.2489347366931582	0.130303281630372	0.03116197692465216	0.3557534842672568	-4.520111472529764	-12.74261652641488	1.629569463418354	8.59778786809939	-729.7934875757401	-45.90584431540056	-0.885804354311638	1.904727041342051	0.2633599236510029	1.711291887405384	-6.37895901424661	-0.3799501743004017	-1.743098609754103	-0.01620016447015501	-4.726954245448597	-4.726954245448753	-0.04353604005731106	0.01362612201093779	-0.5349414443249056	-0.4687360477233589	-2.587117705852113e-10	2.650303552219045e-09	-8.937987667028102e-09	2.570093660728013e-09	2.646106423898393e-11	-5.380791974354638e-09	2.014885818374508e-09
1.01	-0.6552460463892616	-0.1276379856156706	0.5986234871649897	1.945989746558143	-0.2958390531514103	0.1353438380428355	-0.4363289423829614	1.195462813975639	1.195462813975494	-0.1745200660322605	0.1745293553271575	0.1001202768395658	-0.02751025613252446	0.006521023671741056	0.003158265686709389	0.01274018066441331	-0.04250126566747302	-0.00270167281210355	-0.01338463840130881	2.440935897087068e-05	-0.03598084685801321	-0.03598084685801271	1.175786041841989e-05	4.022108587912452e-05	-0.00200840616381571	-0.002922815550836758	-0.4425956050870694	0.002744738217172779	-0.01810097188657225	-0.2489215451271671	0.1302727495199107	0.03127620178665595	0.3556697765245473	-4.521348157794531	-12.79522725730986	1.641634351209873	8.594991329723788	-729.7066476566289	-46.01550126101941	-0.8882080528794183	1.880554692010923	0.2607845609829313	1.708083636703419	-6.34988632640483	-0.3522578481349308	-1.771847147255918	0.006725777250357972	-4.725749517265675	-4.725749517265503	0.02270561184368016	-0.008427055682200564	-0.5330010175987304	-0.4379257807419616	-3.274804032183214e-09	-5.373451943763145e-09	1.893731920263966e-08	3.732477337393192e-09	-5.50013807775507e-09	1.667758588213457e-08	-4.148021080727542e-09
1.02	-0.6550865013577635	-0.1275933385404155	0.5988363330977532	1.945246827502783	-0.2958840838024182	0.1351218435142827	-0.4363287706950314	1.194866523253712	1.194866523253607	-0.1745198691793078	0.1745296380262436	0.100073351895947	-0.02756185705352793	0.02538319415432387	0.005770256505444028	0.02982833882021165	-0.1060789190405634	-0.006301415575591712	-0.03101598349475245	8.598453631373132e-06	-0.08328603947851056	-0.08328603947851054	3.002767779655715e-05	1.307200876496121e-05	-0.007384508069709396	-0.007395505701873114	-0.4424805263929087	0.00268718839001667	-0.01811147871133439	-0.2489083535611783	0.1302422174094475	0.03139042664865877	0.3555860687818453	-4.528977590609916	-12.84657372973429	1.653332215282808	8.613584171483671	-729.7043234105414	-46.0920415806693	-0.8997796282467075	1.89897881687079	0.2622944836535241	1.710482516147124	-6.374610490143373	-0.37631574108135	-1.745187108767801	-0.01779589377616778	-4.73743785038396	-4.73743785038436	-0.04065143079058518	0.009692734986305306	-0.5444511181214924	-0.4665115966062428	-6.426545368544211e-09	-1.405877190335219e-08	4.775340502392487e-08	4.676159801272007e-09	-1.105191045303116e-08	3.986319497375856e-08	-1.065775492442628e-08
1.03	-0.6547384175498642	-0.1275225544927931	0.5992199423658547	1.943868415973864	-0.295965009557595	0.1347235935301226	-0.4363287959712615	1.193797174985281	1.193797174985413	-0.1745194935458155	0.1745296269251075	0.09997244635192065	-0.02765811261903914	0.04423433607957823	0.008389958775129144	0.04688303275184133	-0.1695817363496912	-0.009878705843595336	-0.04862607139328722	-1.432374813585363e-05	-0.1305667005539458	-0.1305667005539465	4.23662174030951e-05	-1.141634119239564e-05	-0.01280250326684283	-0.01185111829964802	-0.4419653352497401	0.002776888071538291	-0.01814356009197464	-0.2487884854230049	0.1303527954311009	0.03146912008417314	0.3552616095630783	-4.464911928614153	-12.89711577215805	1.667270270309853	8.520349904489034	-729.2985546842365	-46.14016838340603	-0.9207565147200459	1.878295900854516	0.2623200912663565	1.701387169998743	-6.334871451076631	-0.3476896340775015	-1.767742646649138	0.005359109375071997	-4.720839714388346	-4.720839714388247	0.02176015154095421	-0.007956843020690399	-0.5413580837776061	-0.4344182367899258	-9.579670879137486e-09	-2.275084252073316e-08	7.657909063043068e-08	5.617610620122388e-09	-1.660393969803461e-08	6.306030642492475e-08	-1.71710278185801e-08
1.04	-0.6542017995186136	-0.1274254710239457	0.599773783440938	1.941855625451897	-0.2960815590083351	0.134149478063725	-0.4363290705709494	1.192255528210443	1.192255528210812	-0.1745190777958889	0.1745294834958682	0.09981718398326909	-0.02779879073961348	0.06309003882490362	0.01103014075043709	0.06387470021658552	-0.232954717649983	-0.01342615468830396	-0.06618907994193535	-4.126623981849823e-05	-0.177745740759984	-0.1777457407599856	3.805096519653498e-05	-1.339361250715339e-05	-0.01825587299471006	-0.01628001671449577	-0.4414501441065672	0.002866587753058434	-0.01817564147261689	-0.2486686172848334	0.1304633734527523	0.03154781351968547	0.3549371503443163	-4.407257607008104	-12.94643428049358	1.680898026303495	8.448574771122422	-728.977360468068	-46.15572841251443	-0.9514439892341249	1.899890980884997	0.2663904247780898	1.697877222770028	-6.348643288376186	-0.3703474564223487	-1.735771238790461	-0.01859995175919199	-4.717113676504544	-4.717113676504979	-0.04398218915321152	0.01419495071481832	-0.5515260242682511	-0.4611687600208103	-1.236167819494467e-08	-2.980822907148414e-08	1.027786244743755e-07	6.734089050250737e-09	-2.165700345044781e-08	8.320054663391133e-08	-2.285918871042582e-08
1.05	-0.6534765651084928	-0.127301848560678	0.6004971370930312	1.939209929305584	-0.296233352876216	0.1334001196664282	-0.43632959933887	1.190242808762458	1.1902428087626	-0.174518805277681	0.1745293854511729	0.09960722790140802	-0.02798353171551228	0.08196057070503597	0.01370114546170156	0.08077661464604179	-0.2961446076431184	-0.01691749338732885	-0.08366302392180572	-6.082373142261252e-05	-0.2247598089101199	-0.224759808910121	1.826408532896073e-05	-8.293748601694973e-06	-0.02373874881953705	-0.02065205267406526	-0.4405837325841778	0.003019137964460876	-0.0182272279295505	-0.2484277823220095	0.1306419682771965	0.03169213381831843	0.354406510578861	-4.301479793967892	-13.03677116609599	1.705737553683284	8.289749718754196	-728.2924798828351	-46.23165930837385	-0.9923695331197251	1.881191286739626	0.2684761106384045	1.683430829854812	-6.298178999040574	-0.3362726508413224	-1.750293187251428	0.00691589430489191	-4.687796633738503	-4.687796633738156	0.0192845409289815	-0.00667535339780408	-0.5471772700438047	-0.4228116736428729	-1.51320880671648e-08	-3.681453174515294e-08	1.288960910757404e-07	7.856037093231523e-09	-2.669447453121756e-08	1.032452596165798e-07	-2.852156485219941e-08
1.06	-0.6525625139805391	-0.1271513119270301	0.6013889263447834	1.935933530830487	-0.2964196092459271	0.1324766043873986	-0.4363302137732731	1.187761099983078	1.187761099982995	-0.1745186783326069	0.1745292698335937	0.09934234127960784	-0.02821151118295036	0.1008533823916584	0.01641297482648178	0.09756182014835546	-0.3590951834065878	-0.02031865505430431	-0.1010204562883207	-5.839953638909554e-05	-0.271543607039072	-0.2715436070390712	8.936338761621345e-06	-1.690818974459869e-05	-0.02924198098251922	-0.02492771502234927	-0.4397173210617933	0.003171688175861933	-0.01827881438648288	-0.2481869473591852	0.1308205631016411	0.03183645411694994	0.3538758708134001	-4.20209384015039	-13.1259858661124	1.730394802763364	8.151745095848	-727.6919093422866	-46.27634474694777	-1.044122748811968	1.904346942183005	0.2745553554812417	1.674535437341514	-6.300780442443	-0.3523120500124672	-1.712468916119372	-0.01420361443158055	-4.671059672267794	-4.671059672267953	-0.04189036249317731	0.01145208970515049	-0.5555972918992809	-0.441894037763719	-1.850829071926028e-08	-4.519551988773042e-08	1.506666363606034e-07	1.014035345769104e-08	-3.226123583629652e-08	1.194285981346331e-07	-3.354553618119183e-08
1.07	-0.6514595096713287	-0.1269734634154565	0.6024479338164433	1.932028973834497	-0.2966394362683834	0.1313800989161458	-0.4363308158375996	1.184812637280982	1.184812637280824	-0.1745186674534531	0.1745290554065349	0.09902216473008023	-0.02848180569085192	0.1197413982468828	0.01916229586927729	0.114215137442817	-0.4217599851369567	-0.02362931089217274	-0.1182651242540278	-6.922565441167897e-05	-0.3181168359316399	-0.3181168359316761	-3.810951301364592e-06	-2.525866039018756e-05	-0.03481121895701752	-0.02911519294400876	-0.4382984713550305	0.003341633441366091	-0.01836284452984937	-0.2480299530920144	0.1312118886684727	0.03203174188469306	0.3529593056591402	-4.012282645165829	-13.25680582933953	1.765839657378933	7.964924899925379	-726.7385408119544	-46.40485099435567	-1.107526438277957	1.880113810658092	0.2759582663233116	1.657041714029049	-6.240899225362935	-0.3178454762077367	-1.728170862808929	0.004396040972374953	-4.645632102804257	-4.645632102809714	0.01946121195033982	-0.006912420319629836	-0.5602683804485228	-0.4047875632339248	-2.19167163915619e-08	-5.364962959780304e-08	1.722059624265036e-07	1.248649792435687e-08	-3.785615087671108e-08	1.354065443939302e-07	-3.853554980737674e-08
1.08	-0.6501678082228733	-0.126767954135926	0.603672736828754	1.927499454983798	-0.2968918504743252	0.1301116057400332	-0.4363317425328204	1.18139940676895	1.181399406768716	-0.1745186984223561	0.1745287707137967	0.0986457595347629	-0.02879349755674345	0.1385928102407432	0.02194512841786088	0.130720928278502	-0.4840875543484898	-0.0268360917513897	-0.1354179972602368	-0.0001233257140353187	-0.3644971690263273	-0.3644971690263999	5.667271636678969e-07	-3.096132584425795e-05	-0.04048771014045236	-0.03320718662034286	-0.4368796216482688	0.003511578706870327	-0.0184468746732195	-0.2478729588248433	0.1316032142353047	0.0322270296524363	0.3520427405048791	-3.828840867514023	-13.38665854272037	1.801299407305416	7.79824241590626	-725.8690452261301	-46.50415455068444	-1.183483980993046	1.897026169910196	0.2812576566388608	1.645030145586204	-6.23333393867586	-0.3315370542821819	-1.694109924219717	-0.02285840275172297	-4.632480512691672	-4.632480512691724	-0.03846536878758729	0.01198165074346375	-0.5770479336865837	-0.4227971886986481	-2.559692291556238e-08	-6.244968741443632e-08	1.904450342170576e-07	1.496352460919259e-08	-4.280753076345504e-08	1.504415989734024e-07	-4.326493984532825e-08
